<svg version="1.1" id="Layer_1" xmlns="http://www.w3.org/2000/svg" xmlns:xlink="http://www.w3.org/1999/xlink" x="0px" y="0px"
	 width="100%" viewBox="0 0 832 752" enable-background="new 0 0 832 752" xml:space="preserve">
<path fill="#000000" opacity="1.000000" stroke="none" 
	d="
M256.000000,533.034790 
	C229.837326,533.046265 204.174454,533.125671 178.512070,533.045654 
	C164.798447,533.002930 156.025391,526.406799 153.206436,514.232727 
	C152.725266,512.154663 152.681351,509.941650 152.680695,507.790955 
	C152.648834,404.139740 152.684921,300.488525 152.578674,196.837418 
	C152.566818,185.279205 156.412125,176.395264 167.297150,171.351257 
	C170.070938,170.065933 172.988220,169.613556 176.041519,169.626511 
	C186.372986,169.670380 196.705429,169.698898 207.036255,169.601257 
	C214.082291,169.534668 214.748672,168.782181 214.765549,161.864624 
	C214.785049,153.865906 214.694305,145.866058 214.801315,137.868698 
	C214.881897,131.845779 216.754776,129.709717 222.734589,129.147095 
	C226.869476,128.758072 231.055603,128.845688 235.219025,128.839462 
	C260.048492,128.802383 284.878082,128.765381 309.707489,128.804031 
	C318.851807,128.818268 320.368164,130.477753 320.322906,139.660629 
	C320.285950,147.159378 320.251251,154.658310 320.268951,162.157059 
	C320.284760,168.850220 320.542999,169.377319 327.246490,169.465607 
	C343.074768,169.674088 358.906952,169.594360 374.737579,169.611725 
	C387.392151,169.625595 387.392944,169.612869 387.400574,182.331589 
	C387.405975,191.330215 387.239258,200.333694 387.495270,209.325134 
	C387.599854,212.998184 386.371002,214.521927 382.820465,215.573288 
	C347.274506,226.098969 318.942322,246.811371 298.361481,277.534424 
	C278.269135,307.528290 268.474792,340.835876 271.603485,376.976349 
	C274.421539,409.528900 287.061554,438.472656 308.310974,463.416748 
	C328.278595,486.856232 353.159210,502.926056 382.635345,511.799225 
	C386.383820,512.927612 388.006989,514.545654 387.729889,518.820496 
	C387.300323,525.448181 387.935394,532.137329 387.824585,538.795532 
	C387.731018,544.418091 385.777069,546.179688 380.112335,546.195679 
	C366.947845,546.232910 353.782928,546.235962 340.618652,546.164124 
	C332.856567,546.121765 331.195160,544.720032 330.827362,537.019592 
	C330.595917,532.174316 327.362671,532.959412 324.488434,532.958740 
	C301.825623,532.953613 279.162811,533.003418 256.000000,533.034790 
M255.171158,243.722397 
	C255.691620,243.115723 256.644501,242.524704 256.667114,241.899979 
	C256.967896,233.599075 257.239197,225.294052 257.289948,216.988693 
	C257.309570,213.775360 255.016556,213.020630 252.141556,213.029114 
	C236.159637,213.076324 220.176636,213.123367 204.195908,212.971115 
	C200.036530,212.931503 198.459457,214.805634 198.529312,218.632111 
	C198.659882,225.784958 198.887604,232.936905 198.930527,240.090088 
	C198.951645,243.607925 200.753815,244.726669 203.961914,244.665329 
	C208.788284,244.573044 213.619858,244.716888 218.444717,244.589737 
	C230.414886,244.274307 242.408066,245.312241 255.171158,243.722397 
M240.103577,478.466553 
	C240.139450,481.295685 240.177643,484.124756 240.210556,486.953918 
	C240.241089,489.579712 241.522186,490.983459 244.190125,490.984650 
	C253.011551,490.988586 261.833008,490.993256 270.654358,490.966125 
	C273.243042,490.958160 274.663666,489.737122 274.651917,486.995056 
	C274.610504,477.340576 274.620850,467.685913 274.598602,458.031311 
	C274.591156,454.796692 273.171783,453.221802 269.708588,453.283813 
	C261.720978,453.426819 253.726868,453.436981 245.739639,453.281677 
	C241.613693,453.201477 240.029861,455.099915 240.072571,459.000732 
	C240.140015,465.159088 240.095978,471.318665 240.103577,478.466553 
z"/>
<path fill="#000000" opacity="1.000000" stroke="none" 
	d="
M362.169830,257.090759 
	C382.274658,245.218170 403.654694,239.128662 426.646179,238.833176 
	C479.079041,238.159302 526.999939,271.812439 545.441711,319.721741 
	C571.071228,386.303955 532.247559,456.994934 473.326569,479.386719 
	C400.564636,507.038452 320.244659,464.567078 304.485413,388.271637 
	C295.565277,345.086639 308.365936,307.362152 338.842010,275.603088 
	C345.693573,268.463074 353.587708,262.636719 362.169830,257.090759 
M383.172424,343.676392 
	C375.830688,362.236084 377.543121,379.666931 390.471863,395.197388 
	C402.694550,409.879700 419.202942,414.875916 437.248260,411.218872 
	C466.736816,405.242767 486.095367,371.529907 469.403961,340.411407 
	C460.072510,323.014435 444.565796,314.684204 424.924316,315.471802 
	C405.837219,316.237152 392.090149,325.990570 383.172424,343.676392 
z"/>
<path fill="#000000" opacity="1.000000" stroke="none" 
	d="
M534.587280,246.634415 
	C532.231689,248.721802 530.605530,247.406342 529.088074,246.030930 
	C523.767090,241.207993 518.105469,236.833466 511.984222,233.081726 
	C509.590912,231.614853 508.686584,229.644516 508.691406,226.868790 
	C508.720978,209.875381 508.590485,192.881668 508.635864,175.888367 
	C508.649628,170.726593 510.019562,169.640732 515.944458,169.634949 
	C551.431213,169.600311 586.918091,169.620483 622.404724,169.565933 
	C627.729736,169.557755 633.054382,169.108368 638.379028,169.112793 
	C656.354492,169.127762 666.329102,178.951599 666.338684,196.882385 
	C666.389465,291.680725 666.369751,386.479095 666.375244,481.277466 
	C666.375793,489.774261 666.437256,498.271515 666.373230,506.767792 
	C666.253723,522.625000 656.893982,532.600708 641.156311,532.937927 
	C624.669495,533.291199 608.169922,533.139282 591.676636,533.057190 
	C585.527832,533.026611 584.029968,531.358521 583.935791,525.254150 
	C583.874146,521.256958 583.786316,517.248047 584.014465,513.261841 
	C584.230774,509.480286 582.637939,507.565063 578.933655,507.503571 
	C573.437988,507.412231 567.940002,507.414124 562.443298,507.439362 
	C558.804016,507.456085 558.136597,509.960052 558.130493,512.883728 
	C558.112854,521.380371 558.123718,529.876953 558.121765,538.373596 
	C558.120300,544.701538 556.891235,546.050354 550.579956,546.100342 
	C539.084717,546.191467 527.588562,546.208923 516.093018,546.175842 
	C510.071625,546.158508 508.693878,544.782837 508.677429,538.825378 
	C508.642975,526.330139 508.822083,513.832520 508.618683,501.340698 
	C508.559082,497.681641 509.925018,495.666504 512.909180,493.725616 
	C546.797974,471.684570 568.805176,440.941589 579.020630,401.908539 
	C585.678894,376.467590 585.718872,350.914185 578.722473,325.445953 
	C577.236572,320.036743 577.475220,319.792999 583.123657,319.756134 
	C592.119995,319.697449 601.117981,319.608673 610.112915,319.718689 
	C614.703918,319.774780 616.958130,317.991669 616.703125,313.207611 
	C616.517151,309.718933 616.513123,306.203186 616.712280,302.715759 
	C616.963501,298.317200 614.868591,296.885803 610.727966,296.847931 
	C598.575806,296.736847 586.420044,296.363251 574.281616,297.097961 
	C570.385132,297.333801 568.201538,295.819305 566.432617,292.423889 
	C562.269043,284.431915 557.224792,276.966919 551.512390,269.990234 
	C548.958984,266.871735 548.898071,264.432220 552.669922,262.368439 
	C553.683228,261.813965 554.540405,260.979858 555.493774,260.308990 
	C566.467590,252.587097 565.234375,253.725388 557.457397,244.028183 
	C549.744934,234.411285 552.153992,234.326584 540.934814,242.021378 
	C538.876099,243.433334 536.889404,244.950226 534.587280,246.634415 
M601.496094,213.067886 
	C596.836914,213.087769 592.177795,213.125076 587.518616,213.121109 
	C584.642578,213.118668 583.242737,214.477234 583.255432,217.385880 
	C583.290955,225.539581 583.285950,233.693466 583.285828,241.847290 
	C583.285767,244.208832 584.247986,245.707352 586.785645,245.708908 
	C595.770264,245.714386 604.755127,245.724152 613.739319,245.654083 
	C616.286987,245.634232 617.700195,244.358536 617.675049,241.603424 
	C617.602051,233.616470 617.644226,225.628525 617.587646,217.641342 
	C617.566528,214.660324 616.156250,213.017426 612.975037,213.083145 
	C609.482178,213.155289 605.986267,213.079163 601.496094,213.067886 
z"/>
<path fill="#000000" opacity="1.000000" stroke="none" 
	d="
M341.199646,574.759033 
	C347.281067,582.452332 352.646332,590.264099 359.435120,597.331909 
	C365.566223,590.962341 370.824371,584.296936 375.656311,577.365479 
	C380.338867,570.648315 386.667542,569.076660 394.030701,570.347961 
	C403.125977,571.918213 406.841248,580.754089 401.270111,588.099976 
	C394.331604,597.249023 387.077850,606.191162 379.452911,614.771851 
	C376.314026,618.304199 376.941040,620.557129 379.504089,623.630432 
	C386.544189,632.072144 393.609528,640.502563 400.347015,649.184143 
	C405.743317,656.137512 404.762146,663.689880 398.489166,667.373352 
	C391.981140,671.194763 382.398773,669.591553 377.639435,663.737305 
	C372.805725,657.791504 368.118683,651.726624 363.345093,645.731689 
	C362.219391,644.317993 361.282501,642.687805 359.227753,641.767578 
	C354.987061,645.730835 351.880157,650.676575 348.181152,655.110962 
	C345.834595,657.924011 343.552063,660.792297 341.297455,663.679993 
	C336.491394,669.835510 329.976685,670.410400 323.211334,668.621094 
	C315.519806,666.586853 312.794128,656.638306 318.135834,649.722229 
	C324.852814,641.025513 331.869781,632.539429 339.141022,624.301086 
	C342.557190,620.430664 342.764496,617.759033 339.150452,613.829285 
	C332.505951,606.604492 326.399963,598.880920 320.150879,591.298157 
	C318.153320,588.874268 316.027985,586.460144 315.701996,583.080505 
	C315.294586,578.856445 315.947968,574.907227 319.732422,572.456116 
	C324.839783,569.148193 330.454681,569.044006 336.020721,571.170898 
	C337.824829,571.860291 339.319550,573.359314 341.199646,574.759033 
z"/>
<path fill="#000000" opacity="1.000000" stroke="none" 
	d="
M454.007202,668.958740 
	C449.013885,668.869202 444.503418,668.982788 440.028381,668.637146 
	C435.321106,668.273438 432.742310,665.326050 432.728210,660.690674 
	C432.645630,633.530151 432.628632,606.369080 432.738068,579.208740 
	C432.758942,574.024109 435.560333,571.028381 440.850739,570.948181 
	C457.342102,570.698303 473.844025,570.565613 490.331360,570.902161 
	C497.351532,571.045410 500.990326,576.481201 500.805969,584.715027 
	C500.627167,592.703064 497.014893,596.809082 489.463867,597.020081 
	C481.304718,597.248108 473.125824,597.372681 464.974701,597.053345 
	C460.239502,596.867859 459.056366,598.724731 458.964905,603.127808 
	C458.866669,607.856995 460.697937,609.279480 465.141937,609.038391 
	C470.626556,608.740784 476.138123,608.782227 481.634033,608.887756 
	C489.687469,609.042358 493.415314,613.027771 493.371796,621.152588 
	C493.326355,629.634155 489.935242,633.189575 481.716461,633.269836 
	C475.718201,633.328430 469.715515,633.435852 463.721649,633.271362 
	C459.579742,633.157776 459.295013,635.616882 459.212036,638.766479 
	C459.125061,642.068298 460.183167,643.750916 463.759491,643.631104 
	C471.915497,643.357971 480.078278,643.295532 488.236633,643.082458 
	C493.019501,642.957581 497.484222,643.853577 499.636719,648.581726 
	C501.930206,653.619690 502.104492,658.982483 499.363983,663.996460 
	C497.624634,667.178772 494.624420,668.378967 490.973297,668.411682 
	C478.816772,668.520386 466.661407,668.766541 454.007202,668.958740 
z"/>
<path fill="#000000" opacity="1.000000" stroke="none" 
	d="
M215.168228,635.293274 
	C206.526688,641.089844 197.117920,641.642456 187.515396,641.316833 
	C185.685547,641.254761 183.845718,641.403748 182.021103,641.288025 
	C178.724747,641.079041 177.602936,642.607300 177.748154,645.791748 
	C177.960358,650.446045 178.042496,655.119385 177.880417,659.774231 
	C177.686539,665.342773 175.256180,667.922791 169.834702,668.868652 
	C169.179810,668.982910 168.515167,669.060608 167.851715,669.103699 
	C156.147461,669.864929 150.194046,669.616943 150.572906,653.467346 
	C151.123489,629.997925 150.712585,606.505676 150.696671,583.023193 
	C150.690201,573.492737 153.346954,570.754211 162.757141,570.744568 
	C173.082794,570.733887 183.408646,570.714355 193.734085,570.765991 
	C210.066559,570.847717 222.726105,579.894775 227.830795,595.060181 
	C232.894974,610.105225 228.279633,625.049377 215.168228,635.293274 
M196.306656,615.242615 
	C200.824402,613.065247 202.549057,609.363831 201.590073,604.603821 
	C200.668777,600.030762 197.585693,597.507996 192.949158,596.962341 
	C190.980530,596.730713 189.002014,596.437195 187.027069,596.430237 
	C178.297455,596.399292 178.170212,596.567993 177.860138,605.101196 
	C177.775940,607.417908 177.629120,609.735168 177.419159,612.043762 
	C177.163467,614.855652 177.979904,616.213684 181.198318,616.338623 
	C186.035202,616.526428 190.789124,616.206299 196.306656,615.242615 
z"/>
<path fill="#000000" opacity="1.000000" stroke="none" 
	d="
M461.999664,138.801285 
	C467.999298,138.813278 473.499451,138.873474 478.998627,138.824936 
	C482.542358,138.793655 484.158752,140.424942 484.155090,143.977005 
	C484.130981,167.309738 484.122772,190.642609 484.192291,213.975204 
	C484.206421,218.717987 481.943115,218.623734 478.410370,217.367386 
	C461.161377,211.233078 443.380005,208.114731 425.046814,208.361557 
	C423.053375,208.388412 421.053436,208.544647 419.072571,208.777344 
	C412.819092,209.511948 412.443268,209.131073 412.413361,203.053879 
	C412.321533,184.410004 412.128296,165.766663 412.023407,147.122833 
	C411.978271,139.098312 412.188660,138.893936 420.000336,138.865128 
	C433.833374,138.814117 447.666595,138.820831 461.999664,138.801285 
z"/>
<path fill="#000000" opacity="1.000000" stroke="none" 
	d="
M641.000000,668.994507 
	C634.173950,669.022705 627.847778,669.085266 621.521790,669.070557 
	C613.264709,669.051392 610.061401,666.000671 609.899658,657.624146 
	C609.729309,648.803772 609.822449,639.978149 609.808289,631.154846 
	C609.782104,614.839905 609.756714,598.525024 609.740784,582.210083 
	C609.732666,573.917725 612.751709,570.901550 621.197815,570.727417 
	C621.697144,570.717102 622.196655,570.719849 622.696106,570.713379 
	C635.278015,570.551270 637.354004,572.756287 637.259460,585.543579 
	C637.132629,602.690063 637.275330,619.839355 637.036682,636.983765 
	C636.973633,641.513550 638.399963,643.227173 643.025208,643.025330 
	C650.337280,642.706177 657.672668,642.825867 664.996704,642.903442 
	C672.383423,642.981689 676.060852,646.824158 676.338806,654.493652 
	C676.698242,664.411987 674.059509,668.365356 665.966553,668.769592 
	C657.827576,669.176147 649.656860,668.945801 641.000000,668.994507 
z"/>
<path fill="#000000" opacity="1.000000" stroke="none" 
	d="
M586.771118,647.639404 
	C587.388245,649.934631 588.067261,651.862488 588.179016,653.822632 
	C588.841614,665.441589 585.614197,668.883484 573.954468,668.975281 
	C562.460571,669.065796 550.965454,669.090149 539.471436,669.029480 
	C531.856812,668.989319 528.762695,665.993164 528.740662,658.456177 
	C528.665283,632.635254 528.666626,606.814026 528.713867,580.993042 
	C528.726746,573.979309 531.774353,571.001099 538.758301,570.750061 
	C539.091125,570.738098 539.424622,570.749756 539.757751,570.743958 
	C554.244812,570.491882 556.083496,572.401001 555.994568,587.067261 
	C555.890564,604.224792 555.996033,621.384155 555.787109,638.539978 
	C555.745056,641.999451 557.056152,642.859558 560.154419,642.779602 
	C565.814758,642.633484 571.481506,642.746033 577.145203,642.705872 
	C581.060669,642.678101 584.344299,643.876038 586.771118,647.639404 
z"/>
<path fill="#000000" opacity="1.000000" stroke="none" 
	d="
M278.176575,570.775696 
	C283.914520,572.277710 286.057831,576.147766 286.060699,581.289429 
	C286.075226,607.255005 286.072723,633.221252 285.882385,659.185791 
	C285.835236,665.612427 282.764160,668.453857 276.368256,669.124878 
	C261.954437,670.637146 258.764008,667.767273 258.759369,653.324707 
	C258.751831,629.855164 258.735504,606.385559 258.717926,582.916016 
	C258.710785,573.382202 261.230652,570.815430 270.815704,570.673096 
	C273.142944,570.638489 275.471375,570.683716 278.176575,570.775696 
z"/>
<path fill="#000000" opacity="1.000000" stroke="none" 
	d="
M412.013977,534.859863 
	C412.004486,530.555481 412.010468,526.731384 411.974670,522.907654 
	C411.942810,519.507568 413.145233,517.641113 416.994385,517.923157 
	C438.854340,519.524536 460.099091,516.721375 480.570221,508.693542 
	C483.616730,507.498840 484.368225,508.782257 484.326172,511.681244 
	C484.191132,520.990356 484.140686,530.302551 484.225677,539.612122 
	C484.268555,544.312622 481.967834,546.235535 477.509003,546.230591 
	C458.055939,546.209167 438.602539,546.273926 419.149963,546.171936 
	C412.942841,546.139404 412.044312,544.578613 412.013977,534.859863 
z"/>
<path fill="#000000" opacity="1.000000" stroke="none" 
	d="
M213.999924,729.104248 
	C205.353073,729.116028 197.206146,729.157959 189.059433,729.131592 
	C181.944031,729.108582 178.071960,725.609619 177.945557,719.195374 
	C177.825439,713.100891 181.582031,709.725098 188.746750,709.703979 
	C206.370682,709.652100 223.994827,709.650391 241.618835,709.671509 
	C248.179993,709.679382 251.837601,712.785217 252.139252,718.437500 
	C252.444519,724.157471 248.275726,728.758423 241.930832,728.953735 
	C232.794312,729.235046 223.644226,729.075867 213.999924,729.104248 
z"/>
<path fill="#000000" opacity="1.000000" stroke="none" 
	d="
M614.000000,729.093140 
	C605.681824,729.110535 597.861816,729.237061 590.045898,729.112244 
	C582.622864,728.993774 578.438904,723.791626 579.820251,716.507690 
	C580.643860,712.164429 583.527161,709.794250 587.877441,709.767700 
	C605.509338,709.660156 623.142761,709.615540 640.774231,709.738708 
	C645.534119,709.771973 648.687256,713.222229 649.158508,718.031738 
	C649.594360,722.480042 646.471313,727.284668 642.386169,728.449036 
	C638.962036,729.424988 635.448669,729.097229 631.966187,729.118652 
	C626.144409,729.154541 620.322083,729.105652 614.000000,729.093140 
z"/>
<path fill="#000000" opacity="1.000000" stroke="none" 
	d="
M513.415955,733.194153 
	C511.991394,733.066833 510.994629,733.014404 509.997192,732.985901 
	C499.681396,732.690491 501.071411,733.841309 501.142792,741.045349 
	C501.191864,745.999451 498.563599,748.549500 494.288239,748.305725 
	C489.749634,748.046875 488.615051,745.094910 488.642365,741.091980 
	C488.708191,731.442749 488.592804,721.792236 488.662140,712.143066 
	C488.697845,707.172852 490.797852,704.834717 494.843933,704.858337 
	C499.037811,704.882812 500.946808,707.140259 501.327148,712.014893 
	C501.523132,714.526794 499.882721,717.964905 502.764282,719.334656 
	C506.062836,720.902649 509.955994,720.082703 513.587891,719.752380 
	C515.224365,719.603638 515.618469,718.247620 515.647339,716.806091 
	C515.687378,714.810181 515.646118,712.809814 515.764343,710.818787 
	C515.984741,707.106628 517.853882,704.859680 521.724121,704.907715 
	C525.523804,704.954773 528.257568,706.592224 528.289307,710.789612 
	C528.367371,721.103821 528.411499,731.420898 528.239502,741.732971 
	C528.170715,745.858398 525.634033,748.309021 521.499084,748.134949 
	C517.578674,747.969849 515.815735,745.514465 515.605042,741.499573 
	C515.460022,738.737122 517.081848,735.427246 513.415955,733.194153 
z"/>
<path fill="#000000" opacity="1.000000" stroke="none" 
	d="
M294.752869,73.098572 
	C294.823395,65.701584 294.823364,65.689705 301.656403,65.669914 
	C309.134583,65.648247 316.615570,65.768845 324.089874,65.593948 
	C327.777222,65.507660 329.579193,66.521721 329.467285,70.629890 
	C329.236572,79.098587 329.290466,87.580338 329.457245,96.052185 
	C329.533051,99.903275 328.051392,101.450737 324.193237,101.378082 
	C316.385437,101.231056 308.568573,101.180458 300.764008,101.397911 
	C296.067261,101.528770 294.637482,99.279968 294.710510,95.022850 
	C294.833099,87.878990 294.753387,80.731659 294.752869,73.098572 
z"/>
<path fill="#000000" opacity="1.000000" stroke="none" 
	d="
M389.250488,734.367432 
	C392.538910,726.488159 395.676819,718.961304 398.771606,711.416809 
	C400.400604,707.445557 402.681183,704.634399 407.561035,704.666382 
	C412.363708,704.697815 415.418488,706.785339 417.181946,711.125732 
	C421.003418,720.531433 424.961273,729.883545 428.640869,739.344055 
	C429.741455,742.173889 431.265228,745.518982 427.521851,747.803955 
	C424.481720,749.659607 420.106812,748.333313 417.754150,744.550659 
	C416.137238,741.950928 414.250977,740.907288 411.221649,741.128174 
	C405.817444,741.522461 400.005463,739.846863 396.738220,746.731689 
	C395.529907,749.277893 391.650452,748.940186 388.936462,747.766052 
	C386.058533,746.520996 386.156250,743.808350 386.786774,741.294800 
	C387.349854,739.050049 388.301727,736.902771 389.250488,734.367432 
M406.101257,724.683167 
	C405.776978,726.023926 404.484161,727.311279 405.860229,728.782959 
	C407.492981,729.141663 409.096771,729.399536 410.623627,728.366516 
	C411.155426,726.366577 410.070862,724.769165 409.161865,723.299316 
	C407.649323,720.853455 406.941467,722.634583 406.101257,724.683167 
z"/>
<path fill="#000000" opacity="1.000000" stroke="none" 
	d="
M312.874329,747.406128 
	C310.043030,745.147705 309.894073,742.267395 309.865021,739.436951 
	C309.772736,730.447937 309.724854,721.457458 309.773224,712.468201 
	C309.801758,707.170593 311.590759,705.306519 316.980743,705.047302 
	C321.467010,704.831604 325.975494,704.736023 330.460907,704.916748 
	C339.859467,705.295349 346.006348,711.593079 345.880646,720.441956 
	C345.765778,728.525391 338.966370,735.231079 330.070526,735.159790 
	C324.661346,735.116455 321.751831,735.968140 322.127930,742.405457 
	C322.407166,747.184937 319.007324,748.765869 312.874329,747.406128 
M322.409760,721.302368 
	C324.573303,724.419067 330.949677,724.661987 332.758698,721.703552 
	C333.554718,720.401794 333.474457,719.117981 332.490356,718.021301 
	C330.409943,715.702820 327.605560,716.291626 325.005249,716.450562 
	C322.497009,716.603882 322.462341,718.638000 322.409760,721.302368 
z"/>
<path fill="#000000" opacity="1.000000" stroke="none" 
	d="
M451.716919,726.123596 
	C452.231628,720.995239 451.732849,717.584961 445.508545,717.758972 
	C441.761597,717.863708 439.551880,715.077881 439.732819,711.037415 
	C439.896515,707.381775 442.029968,705.755371 445.509277,705.455688 
	C453.994049,704.724854 462.487213,704.876282 470.967773,705.350342 
	C474.438080,705.544312 477.243378,707.240112 477.171234,711.167725 
	C477.104431,714.804260 474.867920,716.767517 471.221039,717.384155 
	C464.183899,718.573792 464.200867,718.651611 464.253632,725.752686 
	C464.292023,730.918152 464.306458,736.083801 464.354340,741.249146 
	C464.393097,745.427246 462.435059,747.989502 458.210999,748.209961 
	C453.755829,748.442322 451.946686,745.607178 451.817017,741.597473 
	C451.655548,736.603271 451.739319,731.601135 451.716919,726.123596 
z"/>
<path fill="#000000" opacity="1.000000" stroke="none" 
	d="
M340.662506,117.147491 
	C345.241241,117.041359 349.397369,116.810173 353.528870,117.034088 
	C357.340546,117.240662 359.671875,119.244766 359.545563,123.428627 
	C359.430420,127.242645 359.485138,131.062012 359.355133,134.875275 
	C359.251984,137.900116 357.756287,139.857803 354.635895,140.343964 
	C350.019135,141.063263 345.392761,141.327240 340.764709,140.491440 
	C339.798828,140.316986 338.689178,140.163239 337.956146,139.597702 
	C332.365540,135.284546 335.312378,129.167068 334.899109,123.816605 
	C334.633240,120.374519 336.341003,117.713173 340.662506,117.147491 
z"/>
</svg>